<svg width="84" height="28" viewBox="0 0 84 28" fill="none" xmlns="http://www.w3.org/2000/svg">
<path d="M26.1918 3.04358H3.59805V24.8801H26.1918V3.04358Z" fill="#A7C3D4"/>
<path d="M6.98822 16.3842L6.95362 5.43091H3.56282V7.07565H4.73922V18.0289H4.77382C5.01602 20.8984 7.40342 23.1381 10.3098 23.1381C12.0398 23.1381 13.5622 22.3332 14.6002 21.0734C13.9428 21.3534 13.2508 21.4933 12.4896 21.4933C9.61781 21.5283 7.26502 19.2537 6.98822 16.3842Z" fill="#92ABBC"/>
<path d="M23.3202 3.04358H21.9708C23.1818 4.51335 23.943 6.43804 23.943 8.53771C23.943 9.97248 23.597 11.3373 22.9396 12.5621C22.905 12.5971 22.905 12.6321 22.8704 12.6671C22.559 13.192 22.213 13.7169 21.8324 14.1718C21.4864 14.5568 21.1058 14.9417 20.6906 15.2566V16.3065V16.6214V24.9151H22.8704V16.5864V16.2715V13.017C22.905 12.982 22.905 12.947 22.9396 12.947C24.0468 11.5122 24.7042 9.69252 24.7042 7.73283C24.7042 6.01811 24.1852 4.40836 23.3202 3.04358Z" fill="#92ABBC"/>
<path d="M21.9719 3.04481C21.8335 2.86983 21.6605 2.69486 21.4875 2.51989C21.4529 2.51989 21.4529 2.4849 21.4183 2.4499C21.2799 2.30992 21.1069 2.16995 20.9685 2.02997C19.2039 0.560204 16.8511 -0.174679 14.5675 0.0352879C12.7683 0.21026 11.1767 0.980137 9.8965 2.09996C9.5505 2.37991 9.23909 2.69486 8.9623 3.04481C8.4779 3.60472 8.0973 4.26961 7.7859 4.93451C7.7859 4.9695 7.7513 5.00449 7.7167 5.03949C7.6475 5.17947 7.6129 5.28445 7.5783 5.42443C7.1977 6.36928 6.9901 7.41911 6.9901 8.50393C6.9901 9.58876 7.1977 10.6386 7.5783 11.6184C7.6475 11.7934 7.7167 11.9334 7.7859 12.1084C8.6163 13.9631 10.1041 15.4328 11.9033 16.2727C12.1455 16.3777 12.3877 16.4827 12.6299 16.5876C13.4949 16.9026 14.4637 17.0776 15.4325 17.0776C15.5709 17.0776 15.7093 17.0776 15.8477 17.0426V16.5876V16.2727V16.2377V7.06917H18.0275H20.6225V15.0129V15.2579C21.0377 14.9429 21.4183 14.558 21.7643 14.173C22.1795 13.7181 22.5255 13.1932 22.8023 12.6683C22.8369 12.6333 22.8369 12.5983 22.8715 12.5633C23.4943 11.3735 23.8749 10.0087 23.8749 8.53893C23.9095 6.43926 23.1829 4.54957 21.9719 3.04481Z" fill="#FF9C9C"/>
<path d="M18.0958 7.07336H15.916V16.2769V16.3119V16.6268V17.0818V18.0266H15.8814C15.7776 19.1814 15.3278 20.2313 14.6358 21.1061C13.6324 22.3659 12.0754 23.1708 10.3454 23.1708C7.439 23.1708 5.0516 20.9312 4.8094 18.0616H4.7748V7.07336H3.5984H3.46H2.1798H2.076H0V8.96306V28H20.3794H20.6908V26.5303V26.3553V24.8855V16.5918V16.2769V15.2271V14.9821V7.07336H18.0958Z" fill="#314558"/>
<path d="M36.1929 11.5033V17.0468C36.1929 17.6287 36.3368 18.0731 36.6246 18.38C36.9187 18.6805 37.3056 18.8307 37.7852 18.8307C38.1817 18.8307 38.5621 18.7093 38.9266 18.4663C39.2911 18.2233 39.5853 17.8812 39.8091 17.4401V11.5033H42.1687V20.4612H39.8091V19.2432C38.9586 20.1703 38.0378 20.6338 37.0466 20.6338C36.0874 20.6338 35.3137 20.3205 34.7254 19.6939C34.1371 19.0673 33.8429 18.2489 33.8429 17.2387V11.5033H36.1929Z" fill="white"/>
<path d="M51.3545 11.3306C52.3137 11.3306 53.0778 11.6471 53.6469 12.2801C54.2225 12.9067 54.5102 13.7348 54.5102 14.7642V20.4612H52.1602V15.004C52.1602 14.4221 52.0195 13.9617 51.7382 13.6229C51.4632 13.284 51.0859 13.1145 50.6063 13.1145C50.2418 13.1145 49.8997 13.2232 49.58 13.4406C49.2603 13.6516 48.9086 14.0065 48.5249 14.5052V20.4612H46.1653V11.5033H48.5249V12.7597C48.9597 12.2482 49.4041 11.8837 49.8582 11.6663C50.3186 11.4425 50.8173 11.3306 51.3545 11.3306Z" fill="white"/>
<path d="M59.6866 7.35999C60.0511 7.35999 60.3644 7.49106 60.6266 7.75321C60.8888 8.01537 61.0199 8.32867 61.0199 8.69313C61.0199 9.04479 60.8888 9.3581 60.6266 9.63304C60.3708 9.90158 60.0575 10.0359 59.6866 10.0359C59.3285 10.0359 59.0152 9.90158 58.7466 9.63304C58.4844 9.3581 58.3533 9.04479 58.3533 8.69313C58.3533 8.32228 58.4876 8.00897 58.7562 7.75321C59.0248 7.49106 59.3349 7.35999 59.6866 7.35999ZM60.8664 11.5033V20.4612H58.5068V11.5033H60.8664Z" fill="white"/>
<path d="M67.3953 9.12472H67.5871V11.5033H70.6565V13.2872H67.5871V17.4209C67.5871 17.8237 67.7086 18.1498 67.9516 18.3992C68.1946 18.6485 68.5271 18.7732 68.9492 18.7732C69.4991 18.7732 70.1322 18.575 70.8484 18.1786V20.068C69.9979 20.4452 69.1986 20.6338 68.4504 20.6338C67.44 20.6338 66.6503 20.3589 66.0812 19.809C65.5185 19.2591 65.2371 18.5142 65.2371 17.5743V13.2872H63.8367V12.9035L67.3953 9.12472Z" fill="white"/>
<path d="M78.2693 11.3306C79.2029 11.3306 80.0501 11.5257 80.8111 11.9157C81.5721 12.3057 82.1604 12.8524 82.576 13.5557C82.9916 14.2591 83.1995 15.0551 83.1995 15.9439C83.1995 16.871 82.998 17.683 82.5952 18.38C82.1987 19.0769 81.6104 19.6268 80.8303 20.0296C80.0565 20.4324 79.2029 20.6338 78.2693 20.6338C77.3293 20.6338 76.4756 20.4324 75.7082 20.0296C74.9409 19.6268 74.3558 19.0769 73.9529 18.38C73.5565 17.683 73.3582 16.871 73.3582 15.9439C73.3582 15.0423 73.5692 14.2431 73.9913 13.5461C74.4133 12.8428 75.0016 12.2993 75.7562 11.9157C76.5107 11.5257 77.3484 11.3306 78.2693 11.3306ZM75.8329 15.9439C75.8329 16.839 76.0503 17.5552 76.4852 18.0922C76.9264 18.6229 77.5147 18.8883 78.2501 18.8883C79.0174 18.8883 79.6217 18.6325 80.0629 18.121C80.5042 17.6095 80.7248 16.8774 80.7248 15.9247C80.7248 15.0168 80.501 14.3166 80.0533 13.8243C79.6121 13.3256 79.011 13.0762 78.2501 13.0762C77.5339 13.0762 76.952 13.3383 76.5044 13.8626C76.0567 14.3869 75.8329 15.0807 75.8329 15.9439Z" fill="white"/>
</svg>
